{"glyphs":{"0":{"ha":621,"x_min":53,"x_max":571,"o":"m 571 78 l 544 53 l 467 129 l 467 389 l 544 467 l 571 440 l 571 78 l 571 78 m 571 518 l 544 492 l 467 569 l 467 829 l 544 906 l 571 881 l 571 518 l 571 518 m 518 932 l 442 854 l 182 854 l 104 932 l 131 958 l 493 958 l 518 932 l 518 932 m 157 569 l 79 492 l 53 518 l 53 881 l 79 906 l 157 829 l 157 569 l 157 569 m 157 129 l 79 53 l 53 78 l 53 440 l 79 467 l 157 389 l 157 129 l 157 129 m 518 26 l 493 0 l 131 0 l 104 26 l 182 104 l 442 104 l 518 26 l 518 26 z "},"1":{"ha":201,"x_min":47,"x_max":151,"o":"m 151 517 l 125 492 l 47 569 l 47 879 l 125 957 l 151 931 l 151 517 l 151 517 m 151 25 l 125 0 l 47 78 l 47 388 l 125 465 l 151 439 l 151 25 l 151 25 z "},"2":{"ha":621,"x_min":51,"x_max":569,"o":"m 569 517 l 543 492 l 465 568 l 465 828 l 543 906 l 569 879 l 569 517 l 569 517 m 518 931 l 440 853 l 156 853 l 51 957 l 492 957 l 518 931 l 518 931 m 156 129 l 78 51 l 51 76 l 51 439 l 78 465 l 156 388 l 156 129 l 156 129 m 569 0 l 129 0 l 103 25 l 181 103 l 467 103 l 569 0 l 569 0 m 506 478 l 453 426 l 168 426 l 115 478 l 168 531 l 453 531 l 506 478 l 506 478 z "},"3":{"ha":572,"x_min":32,"x_max":524,"o":"m 497 0 l 32 0 l 136 103 l 394 103 l 497 0 l 497 0 m 524 439 l 524 25 l 419 129 l 419 388 l 497 465 l 524 439 l 524 439 m 408 531 l 460 478 l 408 426 l 122 426 l 71 478 l 122 531 l 408 531 l 408 531 m 524 931 l 524 517 l 497 492 l 419 569 l 419 828 l 524 931 l 524 931 m 497 957 l 394 854 l 136 854 l 32 957 l 497 957 l 497 957 z "},"4":{"ha":606,"x_min":40,"x_max":558,"o":"m 558 0 l 454 104 l 454 389 l 532 467 l 558 440 l 558 0 l 558 0 m 558 518 l 532 492 l 454 569 l 454 854 l 558 958 l 558 518 l 558 518 m 144 569 l 67 492 l 40 518 l 40 958 l 144 854 l 144 569 l 144 569 m 493 479 l 442 428 l 156 428 l 104 479 l 156 531 l 442 531 l 493 479 l 493 479 z "},"5":{"ha":621,"x_min":53,"x_max":571,"o":"m 571 957 l 467 854 l 182 854 l 104 932 l 131 957 l 571 957 l 571 957 m 156 569 l 79 492 l 53 518 l 53 881 l 79 906 l 156 828 l 156 569 l 156 569 m 506 479 l 454 426 l 168 426 l 117 479 l 168 531 l 454 531 l 506 479 l 506 479 m 571 78 l 544 51 l 467 129 l 467 388 l 544 465 l 571 440 l 571 78 l 571 78 m 518 26 l 493 0 l 53 0 l 156 103 l 183 104 l 440 104 l 518 26 l 518 26 z "},"6":{"ha":621,"x_min":53,"x_max":571,"o":"m 518 25 l 492 0 l 131 0 l 104 25 l 182 103 l 440 103 l 518 25 l 518 25 m 569 76 l 544 51 l 467 129 l 467 388 l 544 465 l 569 439 l 569 76 l 569 76 m 571 957 l 468 853 l 182 853 l 104 931 l 131 957 l 571 957 l 571 957 m 454 531 l 506 478 l 454 426 l 168 426 l 117 478 l 168 531 l 454 531 l 454 531 m 156 129 l 78 51 l 53 76 l 53 439 l 78 465 l 156 388 l 156 129 l 156 129 m 156 568 l 78 492 l 53 517 l 53 879 l 78 906 l 156 828 l 156 568 l 156 568 z "},"7":{"ha":572,"x_min":28,"x_max":519,"o":"m 519 0 l 415 103 l 415 388 l 493 465 l 519 439 l 519 0 l 519 0 m 519 517 l 493 492 l 415 569 l 415 828 l 519 931 l 519 517 l 519 517 m 493 957 l 390 854 l 131 854 l 28 957 l 493 957 l 493 957 z "},"8":{"ha":621,"x_min":53,"x_max":569,"o":"m 518 25 l 493 0 l 131 0 l 104 25 l 182 103 l 440 103 l 518 25 l 518 25 m 569 78 l 544 51 l 467 129 l 467 388 l 544 465 l 569 439 l 569 78 l 569 78 m 569 517 l 544 492 l 467 569 l 467 828 l 544 906 l 569 879 l 569 517 l 569 517 m 518 931 l 440 854 l 182 854 l 104 931 l 131 957 l 493 957 l 518 931 l 518 931 m 156 569 l 78 492 l 53 517 l 53 879 l 78 906 l 156 828 l 156 569 l 156 569 m 454 531 l 506 478 l 454 426 l 168 426 l 117 478 l 168 531 l 454 531 l 454 531 m 156 129 l 78 51 l 53 78 l 53 439 l 78 465 l 156 388 l 156 129 l 156 129 z "},"9":{"ha":621,"x_min":51,"x_max":569,"o":"m 569 518 l 543 492 l 465 569 l 465 828 l 543 906 l 569 881 l 569 518 l 569 518 m 518 932 l 440 854 l 181 854 l 103 932 l 129 958 l 492 958 l 518 932 l 518 932 m 156 569 l 78 492 l 51 518 l 51 881 l 78 906 l 156 828 l 156 569 l 156 569 m 453 531 l 506 479 l 453 428 l 168 428 l 115 479 l 168 531 l 453 531 l 453 531 m 518 26 l 492 0 l 51 0 l 154 103 l 183 104 l 440 104 l 518 26 l 518 26 m 569 78 l 543 51 l 465 129 l 465 389 l 543 467 l 569 440 l 569 78 l 569 78 z "},"\u0000":{"ha":0,"x_min":0,"x_max":0,"o":""},"\r":{"ha":494,"x_min":0,"x_max":0,"o":""}," ":{"ha":494,"x_min":0,"x_max":0,"o":""},"E":{"ha":572,"x_min":53,"x_max":544,"o":"m 544 958 l 440 854 l 182 854 l 79 958 l 544 958 l 544 958 m 156 829 l 156 569 l 79 492 l 53 518 l 53 932 l 156 829 l 156 829 m 454 531 l 506 479 l 454 428 l 168 428 l 117 479 l 168 531 l 454 531 l 454 531 m 156 389 l 156 131 l 53 26 l 53 440 l 79 467 l 156 389 l 156 389 m 544 0 l 79 0 l 182 104 l 440 104 l 544 0 l 544 0 z "},"F":{"ha":561,"x_min":50,"x_max":542,"o":"m 153 388 l 153 103 l 50 0 l 50 439 l 76 465 l 153 388 l 153 388 m 503 478 l 451 426 l 165 426 l 114 478 l 165 531 l 451 531 l 503 478 l 503 478 m 542 957 l 438 853 l 179 853 l 76 957 l 542 957 l 542 957 m 153 828 l 153 568 l 76 492 l 50 517 l 50 931 l 153 828 l 153 828 z "},"G":{"ha":621,"x_min":53,"x_max":574,"o":"m 518 26 l 493 0 l 131 0 l 104 26 l 182 103 l 440 103 l 518 26 l 518 26 m 571 78 l 544 51 l 467 129 l 467 388 l 544 465 l 571 440 l 571 78 l 571 78 m 574 957 l 469 854 l 182 854 l 104 932 l 131 957 l 574 957 l 574 957 m 156 129 l 79 51 l 53 78 l 53 440 l 79 465 l 156 388 l 156 129 l 156 129 m 156 569 l 79 492 l 53 518 l 53 879 l 79 906 l 156 828 l 156 569 l 156 569 m 506 479 l 454 426 l 290 426 l 239 479 l 290 531 l 454 531 l 506 479 l 506 479 z "},"H":{"ha":621,"x_min":54,"x_max":571,"o":"m 571 0 l 468 104 l 468 389 l 546 467 l 571 440 l 571 0 l 571 0 m 571 958 l 571 518 l 546 492 l 468 569 l 468 854 l 571 958 l 571 958 m 157 854 l 157 569 l 79 492 l 54 518 l 54 958 l 157 854 l 157 854 m 507 479 l 456 428 l 169 428 l 118 479 l 169 531 l 456 531 l 507 479 l 507 479 m 157 104 l 54 0 l 54 440 l 79 467 l 157 389 l 157 104 l 157 104 z "},"I":{"ha":201,"x_min":47,"x_max":151,"o":"m 151 517 l 125 492 l 47 569 l 47 879 l 125 957 l 151 931 l 151 517 l 151 517 m 151 25 l 125 0 l 47 78 l 47 388 l 125 465 l 151 439 l 151 25 l 151 25 z "},"J":{"ha":621,"x_min":53,"x_max":569,"o":"m 569 518 l 544 492 l 467 569 l 467 854 l 569 957 l 569 518 l 569 518 m 569 26 l 467 129 l 467 388 l 544 465 l 569 440 l 569 26 l 569 26 m 544 0 l 78 0 l 182 104 l 440 104 l 544 0 l 544 0 m 156 129 l 53 26 l 53 379 l 156 276 l 156 129 l 156 129 z "},"K":{"ha":621,"x_min":53,"x_max":569,"o":"m 569 439 l 569 0 l 467 103 l 467 388 l 544 465 l 569 439 m 569 957 l 569 883 l 253 567 l 192 567 l 192 653 l 497 957 l 569 957 m 156 853 l 156 568 l 78 492 l 53 517 l 53 957 l 156 853 m 506 478 l 454 426 l 168 426 l 117 478 l 168 531 l 454 531 l 506 478 m 156 388 l 156 103 l 53 0 l 53 439 q 65 452 60 446 q 78 465 71 458 l 156 388 z "},"M":{"ha":692,"x_min":47,"x_max":643,"o":"m 643 0 l 539 104 l 539 389 l 617 467 l 643 440 l 643 0 l 643 0 m 643 932 l 643 518 l 617 492 l 539 569 l 539 828 l 643 932 l 643 932 m 394 518 l 342 467 l 290 518 l 290 818 l 394 818 l 394 518 l 394 518 m 617 958 l 514 854 l 178 854 l 74 958 l 617 958 l 617 958 m 151 828 l 151 569 l 74 492 l 47 518 l 47 932 l 151 828 l 151 828 m 151 104 l 47 0 l 47 440 l 74 467 l 151 389 l 151 104 l 151 104 z "},"N":{"ha":621,"x_min":54,"x_max":571,"o":"m 571 25 l 546 0 l 468 78 l 468 388 l 546 465 l 571 439 l 571 25 l 571 25 m 571 517 l 546 492 l 468 569 l 468 879 l 546 957 l 571 931 l 571 517 l 571 517 m 432 676 l 432 569 l 393 569 l 193 768 l 193 879 l 229 879 l 432 676 l 432 676 m 157 569 l 79 492 l 54 517 l 54 931 l 79 957 l 157 879 l 157 569 l 157 569 m 157 78 l 79 0 l 54 25 l 54 439 l 79 465 l 157 388 l 157 78 l 157 78 z "},"L":{"ha":567,"x_min":53,"x_max":544,"o":"m 156 569 l 79 492 l 53 518 l 53 958 l 156 854 l 156 569 l 156 569 m 544 0 l 79 0 l 182 104 l 440 104 l 544 0 l 544 0 m 156 131 l 53 26 l 53 440 l 79 467 l 156 389 l 156 131 l 156 131 z "},"O":{"ha":621,"x_min":53,"x_max":571,"o":"m 571 78 l 544 53 l 467 129 l 467 389 l 544 467 l 571 440 l 571 78 l 571 78 m 571 518 l 544 492 l 467 569 l 467 829 l 544 906 l 571 881 l 571 518 l 571 518 m 518 932 l 442 854 l 182 854 l 104 932 l 131 958 l 493 958 l 518 932 l 518 932 m 157 569 l 79 492 l 53 518 l 53 881 l 79 906 l 157 829 l 157 569 l 157 569 m 157 129 l 79 53 l 53 78 l 53 440 l 79 467 l 157 389 l 157 129 l 157 129 m 518 26 l 493 0 l 131 0 l 104 26 l 182 104 l 442 104 l 518 26 l 518 26 z "},"P":{"ha":607,"x_min":51,"x_max":569,"o":"m 569 517 l 543 492 l 465 569 l 465 828 l 543 906 l 569 879 l 569 517 m 518 931 l 440 854 l 181 854 q 128 904 154 879 q 78 957 101 929 l 492 957 l 518 931 m 156 569 l 78 492 l 51 517 l 51 931 l 156 828 l 156 569 m 453 531 l 506 478 l 453 426 l 168 426 l 115 478 l 168 531 l 453 531 m 156 103 l 51 0 l 51 439 l 78 465 l 156 388 l 156 103 z "},"Q":{"ha":621,"x_min":56,"x_max":572,"o":"m 349 104 l 451 0 l 132 0 l 107 26 l 185 104 l 349 104 l 349 104 m 572 74 l 572 0 l 500 0 l 346 154 l 346 240 l 407 240 l 572 74 l 572 74 m 572 121 l 469 225 l 469 389 l 546 467 l 572 440 l 572 121 l 572 121 m 572 518 l 546 492 l 469 569 l 469 829 l 546 907 l 572 881 l 572 518 l 572 518 m 521 932 l 443 854 l 185 854 l 107 932 l 132 958 l 494 958 l 521 932 l 521 932 m 158 569 l 81 492 l 56 518 l 56 881 l 81 907 l 158 829 l 158 569 l 158 569 m 158 131 l 81 53 l 56 78 l 56 440 l 81 467 l 158 389 l 158 131 l 158 131 z "},"R":{"ha":621,"x_min":54,"x_max":571,"o":"m 571 74 l 571 0 l 497 0 l 193 306 l 193 392 l 254 392 l 571 74 l 571 74 m 157 104 l 54 0 l 54 440 l 79 467 l 157 389 l 157 104 l 157 104 m 519 932 l 442 854 l 183 854 l 79 958 l 493 958 l 519 932 l 519 932 m 571 518 l 546 492 l 468 569 l 468 828 l 546 906 l 571 881 l 571 518 l 571 518 m 456 531 l 507 479 l 456 428 l 169 428 l 118 479 l 169 531 l 456 531 l 456 531 m 157 569 l 79 492 l 54 518 l 54 932 l 157 828 l 157 569 l 157 569 z "},"S":{"ha":621,"x_min":53,"x_max":571,"o":"m 571 957 l 467 854 l 182 854 l 104 932 l 131 957 l 571 957 l 571 957 m 156 569 l 79 492 l 53 518 l 53 881 l 79 906 l 156 828 l 156 569 l 156 569 m 506 479 l 454 426 l 168 426 l 117 479 l 168 531 l 454 531 l 506 479 l 506 479 m 571 78 l 544 51 l 467 129 l 467 388 l 544 465 l 571 440 l 571 78 l 571 78 m 518 26 l 493 0 l 53 0 l 156 103 l 183 104 l 440 104 l 518 26 l 518 26 z "},"T":{"ha":604,"x_min":25,"x_max":581,"o":"m 354 26 l 328 0 l 250 78 l 250 388 l 328 465 l 354 440 l 354 26 l 354 26 m 354 518 l 328 492 l 250 569 l 250 821 l 354 821 l 354 518 l 354 518 m 554 957 l 581 932 l 503 854 l 103 854 l 25 932 l 50 957 l 554 957 l 554 957 z "},"U":{"ha":621,"x_min":50,"x_max":568,"o":"m 542 0 l 76 0 l 179 103 l 439 103 l 542 0 l 542 0 m 568 440 l 568 26 l 464 129 l 464 388 l 542 465 l 568 440 l 568 440 m 568 518 l 542 492 l 464 569 l 464 854 l 568 957 l 568 518 l 568 518 m 154 569 l 76 492 l 50 518 l 50 957 l 154 854 l 154 569 l 154 569 m 154 388 l 154 129 l 50 26 l 50 440 l 76 465 l 154 388 l 154 388 z "},"V":{"ha":610,"x_min":50,"x_max":567,"o":"m 549 471 l 561 436 q 458 219 508 328 q 357 0 407 110 l 325 0 l 325 176 q 342 217 325 181 q 379 297 358 253 q 419 381 400 342 q 444 433 439 421 l 549 471 m 567 518 l 542 492 l 464 569 l 464 854 l 567 958 l 567 518 m 153 569 l 75 492 l 50 518 l 50 958 l 153 854 l 153 569 m 292 176 l 292 0 l 260 0 l 57 436 l 69 471 l 172 433 q 197 381 178 421 q 238 297 217 342 q 275 217 258 253 q 292 176 292 181 z "},"W":{"ha":692,"x_min":49,"x_max":644,"o":"m 644 518 l 618 492 l 540 569 l 540 854 l 644 958 l 644 518 l 644 518 m 644 440 l 644 26 l 540 131 l 540 389 l 618 467 l 644 440 l 644 440 m 618 0 l 75 0 l 179 104 l 515 104 l 618 0 l 618 0 m 401 140 l 299 140 l 299 440 l 350 492 l 401 440 l 401 140 l 401 140 m 153 569 l 75 492 l 49 518 l 49 958 l 153 854 l 153 569 l 153 569 m 153 389 l 153 131 l 49 26 l 49 440 l 75 467 l 153 389 l 153 389 z "},"X":{"ha":578,"x_min":42,"x_max":542,"o":"m 363 463 l 542 33 l 528 0 l 444 0 q 429 35 440 8 q 403 97 418 61 q 371 173 388 133 q 340 246 354 213 q 317 301 326 279 q 308 324 308 322 l 308 463 l 363 463 m 275 463 l 275 324 q 266 301 275 322 q 243 246 257 279 q 213 173 229 213 q 181 97 196 133 q 154 35 165 61 q 139 0 143 8 l 56 0 l 42 33 l 221 463 l 275 463 m 275 633 l 275 496 l 221 496 l 42 924 l 56 957 l 139 957 q 153 922 142 949 q 181 860 165 896 q 213 784 196 824 q 243 711 229 744 q 266 656 257 678 q 275 633 275 633 m 528 957 l 542 924 l 363 496 l 308 496 l 308 633 q 317 656 308 633 q 340 711 326 678 q 371 784 354 744 q 403 860 388 824 q 430 922 418 896 q 444 957 442 949 l 528 957 z "},"Y":{"ha":621,"x_min":51,"x_max":569,"o":"m 569 517 l 543 492 l 465 569 l 465 853 l 569 957 l 569 517 l 569 517 m 569 78 l 543 51 l 465 129 l 465 388 l 543 465 l 569 439 l 569 78 l 569 78 m 518 25 l 492 0 l 51 0 l 156 103 l 440 103 l 518 25 l 518 25 m 504 478 l 453 426 l 167 426 l 115 478 l 167 531 l 453 531 l 504 478 l 504 478 m 154 569 l 76 492 l 51 517 l 51 957 l 154 853 l 154 569 l 154 569 z "},"Z":{"ha":586,"x_min":35,"x_max":546,"o":"m 468 103 l 546 25 l 519 0 l 76 0 l 35 42 l 63 103 l 468 103 m 290 463 l 314 406 l 192 138 l 78 138 l 214 436 l 258 463 l 290 463 m 503 819 q 477 759 494 800 q 441 674 460 718 q 404 594 422 631 q 376 544 386 557 q 365 536 375 543 q 344 521 356 529 q 322 505 332 513 q 307 494 311 497 l 264 494 l 253 521 l 389 819 l 503 819 m 546 914 l 518 854 l 113 854 l 35 932 l 61 957 l 503 957 l 546 914 z "},"a":{"ha":621,"x_min":51,"x_max":568,"o":"m 568 0 l 465 103 l 465 388 l 543 465 l 568 439 l 568 0 l 568 0 m 568 931 l 568 517 l 543 492 l 465 568 l 465 828 l 568 931 l 568 931 m 543 957 l 439 853 l 181 853 l 76 957 l 543 957 l 543 957 m 154 828 l 154 568 l 76 492 l 51 517 l 51 931 l 154 828 l 154 828 m 504 478 l 453 426 l 167 426 l 115 478 l 167 531 l 453 531 l 504 478 l 504 478 m 154 103 l 51 0 l 51 439 l 76 465 l 154 388 l 154 103 l 154 103 z "},"b":{"ha":621,"x_min":53,"x_max":571,"o":"m 518 25 l 493 0 l 79 0 l 182 103 l 442 103 l 518 25 m 571 76 l 544 51 l 467 129 l 467 388 l 544 465 l 571 439 l 571 76 m 571 517 l 544 492 l 467 568 l 467 828 l 544 906 l 571 879 l 571 517 m 518 931 l 442 853 l 182 853 q 130 904 156 879 q 79 957 104 929 l 493 957 l 518 931 m 157 568 l 79 492 l 53 517 l 53 931 l 157 828 l 157 568 m 507 478 l 454 426 l 169 426 l 117 478 l 169 531 l 454 531 l 507 478 m 157 129 l 53 25 l 53 439 l 79 465 l 157 388 l 157 129 z "},"c":{"ha":563,"x_min":51,"x_max":543,"o":"m 543 957 l 439 854 l 181 854 l 103 932 l 129 957 l 543 957 l 543 957 m 154 569 l 76 492 l 51 517 l 51 879 l 76 906 l 154 828 l 154 569 l 154 569 m 439 103 l 543 0 l 129 0 l 103 25 l 181 103 l 439 103 l 439 103 m 154 129 l 76 51 l 51 78 l 51 440 l 76 465 l 154 388 l 154 129 l 154 129 z "},"d":{"ha":621,"x_min":51,"x_max":569,"o":"m 156 129 l 51 26 l 51 440 l 78 465 l 156 388 l 156 129 l 156 129 m 517 26 l 492 0 l 78 0 l 181 103 l 440 103 l 517 26 l 517 26 m 569 78 l 543 51 l 465 129 l 465 388 l 543 465 l 569 440 l 569 78 l 569 78 m 569 518 l 543 492 l 465 569 l 465 828 l 543 906 l 569 879 l 569 518 l 569 518 m 517 932 l 440 854 l 181 854 l 78 957 l 492 957 l 517 932 l 517 932 m 156 569 l 78 492 l 51 518 l 51 932 l 156 828 l 156 569 l 156 569 z "},"e":{"ha":572,"x_min":53,"x_max":544,"o":"m 544 958 l 440 854 l 182 854 l 79 958 l 544 958 l 544 958 m 156 829 l 156 569 l 79 492 l 53 518 l 53 932 l 156 829 l 156 829 m 454 531 l 506 479 l 454 428 l 168 428 l 117 479 l 168 531 l 454 531 l 454 531 m 156 389 l 156 131 l 53 26 l 53 440 l 79 467 l 156 389 l 156 389 m 544 0 l 79 0 l 182 104 l 440 104 l 544 0 l 544 0 z "},"f":{"ha":561,"x_min":50,"x_max":542,"o":"m 153 388 l 153 103 l 50 0 l 50 439 l 76 465 l 153 388 l 153 388 m 503 478 l 451 426 l 165 426 l 114 478 l 165 531 l 451 531 l 503 478 l 503 478 m 542 957 l 438 853 l 179 853 l 76 957 l 542 957 l 542 957 m 153 828 l 153 568 l 76 492 l 50 517 l 50 931 l 153 828 l 153 828 z "},"g":{"ha":621,"x_min":53,"x_max":574,"o":"m 518 26 l 493 0 l 131 0 l 104 26 l 182 103 l 440 103 l 518 26 l 518 26 m 571 78 l 544 51 l 467 129 l 467 388 l 544 465 l 571 440 l 571 78 l 571 78 m 574 957 l 469 854 l 182 854 l 104 932 l 131 957 l 574 957 l 574 957 m 156 129 l 79 51 l 53 78 l 53 440 l 79 465 l 156 388 l 156 129 l 156 129 m 156 569 l 79 492 l 53 518 l 53 879 l 79 906 l 156 828 l 156 569 l 156 569 m 506 479 l 454 426 l 290 426 l 239 479 l 290 531 l 454 531 l 506 479 l 506 479 z "},"h":{"ha":621,"x_min":54,"x_max":571,"o":"m 571 0 l 468 104 l 468 389 l 546 467 l 571 440 l 571 0 l 571 0 m 571 958 l 571 518 l 546 492 l 468 569 l 468 854 l 571 958 l 571 958 m 157 854 l 157 569 l 79 492 l 54 518 l 54 958 l 157 854 l 157 854 m 507 479 l 456 428 l 169 428 l 118 479 l 169 531 l 456 531 l 507 479 l 507 479 m 157 104 l 54 0 l 54 440 l 79 467 l 157 389 l 157 104 l 157 104 z "},"i":{"ha":201,"x_min":47,"x_max":151,"o":"m 151 517 l 125 492 l 47 569 l 47 879 l 125 957 l 151 931 l 151 517 l 151 517 m 151 25 l 125 0 l 47 78 l 47 388 l 125 465 l 151 439 l 151 25 l 151 25 z "},"j":{"ha":621,"x_min":53,"x_max":569,"o":"m 569 518 l 544 492 l 467 569 l 467 854 l 569 957 l 569 518 l 569 518 m 569 26 l 467 129 l 467 388 l 544 465 l 569 440 l 569 26 l 569 26 m 544 0 l 78 0 l 182 104 l 440 104 l 544 0 l 544 0 m 156 129 l 53 26 l 53 379 l 156 276 l 156 129 l 156 129 z "},"k":{"ha":621,"x_min":53,"x_max":569,"o":"m 569 439 l 569 0 l 467 103 l 467 388 l 544 465 l 569 439 m 569 957 l 569 883 l 253 567 l 192 567 l 192 653 l 497 957 l 569 957 m 156 853 l 156 568 l 78 492 l 53 517 l 53 957 l 156 853 m 506 478 l 454 426 l 168 426 l 117 478 l 168 531 l 454 531 l 506 478 m 156 388 l 156 103 l 53 0 l 53 439 q 65 452 60 446 q 78 465 71 458 l 156 388 z "},"l":{"ha":567,"x_min":53,"x_max":544,"o":"m 156 569 l 79 492 l 53 518 l 53 958 l 156 854 l 156 569 l 156 569 m 544 0 l 79 0 l 182 104 l 440 104 l 544 0 l 544 0 m 156 131 l 53 26 l 53 440 l 79 467 l 156 389 l 156 131 l 156 131 z "},"m":{"ha":692,"x_min":47,"x_max":643,"o":"m 643 0 l 539 104 l 539 389 l 617 467 l 643 440 l 643 0 l 643 0 m 643 932 l 643 518 l 617 492 l 539 569 l 539 828 l 643 932 l 643 932 m 394 518 l 342 467 l 290 518 l 290 818 l 394 818 l 394 518 l 394 518 m 617 958 l 514 854 l 178 854 l 74 958 l 617 958 l 617 958 m 151 828 l 151 569 l 74 492 l 47 518 l 47 932 l 151 828 l 151 828 m 151 104 l 47 0 l 47 440 l 74 467 l 151 389 l 151 104 l 151 104 z "},"n":{"ha":621,"x_min":54,"x_max":571,"o":"m 571 25 l 546 0 l 468 78 l 468 388 l 546 465 l 571 439 l 571 25 l 571 25 m 571 517 l 546 492 l 468 569 l 468 879 l 546 957 l 571 931 l 571 517 l 571 517 m 432 676 l 432 569 l 393 569 l 193 768 l 193 879 l 229 879 l 432 676 l 432 676 m 157 569 l 79 492 l 54 517 l 54 931 l 79 957 l 157 879 l 157 569 l 157 569 m 157 78 l 79 0 l 54 25 l 54 439 l 79 465 l 157 388 l 157 78 l 157 78 z "},"o":{"ha":621,"x_min":53,"x_max":571,"o":"m 571 78 l 544 53 l 467 129 l 467 389 l 544 467 l 571 440 l 571 78 l 571 78 m 571 518 l 544 492 l 467 569 l 467 829 l 544 906 l 571 881 l 571 518 l 571 518 m 518 932 l 442 854 l 182 854 l 104 932 l 131 958 l 493 958 l 518 932 l 518 932 m 157 569 l 79 492 l 53 518 l 53 881 l 79 906 l 157 829 l 157 569 l 157 569 m 157 129 l 79 53 l 53 78 l 53 440 l 79 467 l 157 389 l 157 129 l 157 129 m 518 26 l 493 0 l 131 0 l 104 26 l 182 104 l 442 104 l 518 26 l 518 26 z "},"p":{"ha":607,"x_min":51,"x_max":569,"o":"m 569 517 l 543 492 l 465 569 l 465 828 l 543 906 l 569 879 l 569 517 m 518 931 l 440 854 l 181 854 q 128 904 154 879 q 78 957 101 929 l 492 957 l 518 931 m 156 569 l 78 492 l 51 517 l 51 931 l 156 828 l 156 569 m 453 531 l 506 478 l 453 426 l 168 426 l 115 478 l 168 531 l 453 531 m 156 103 l 51 0 l 51 439 l 78 465 l 156 388 l 156 103 z "},"q":{"ha":621,"x_min":56,"x_max":572,"o":"m 349 104 l 451 0 l 132 0 l 107 26 l 185 104 l 349 104 l 349 104 m 572 74 l 572 0 l 500 0 l 346 154 l 346 240 l 407 240 l 572 74 l 572 74 m 572 121 l 469 225 l 469 389 l 546 467 l 572 440 l 572 121 l 572 121 m 572 518 l 546 492 l 469 569 l 469 829 l 546 907 l 572 881 l 572 518 l 572 518 m 521 932 l 443 854 l 185 854 l 107 932 l 132 958 l 494 958 l 521 932 l 521 932 m 158 569 l 81 492 l 56 518 l 56 881 l 81 907 l 158 829 l 158 569 l 158 569 m 158 131 l 81 53 l 56 78 l 56 440 l 81 467 l 158 389 l 158 131 l 158 131 z "},"r":{"ha":621,"x_min":54,"x_max":571,"o":"m 571 74 l 571 0 l 497 0 l 193 306 l 193 392 l 254 392 l 571 74 l 571 74 m 157 104 l 54 0 l 54 440 l 79 467 l 157 389 l 157 104 l 157 104 m 519 932 l 442 854 l 183 854 l 79 958 l 493 958 l 519 932 l 519 932 m 571 518 l 546 492 l 468 569 l 468 828 l 546 906 l 571 881 l 571 518 l 571 518 m 456 531 l 507 479 l 456 428 l 169 428 l 118 479 l 169 531 l 456 531 l 456 531 m 157 569 l 79 492 l 54 518 l 54 932 l 157 828 l 157 569 l 157 569 z "},"s":{"ha":621,"x_min":53,"x_max":571,"o":"m 571 957 l 467 854 l 182 854 l 104 932 l 131 957 l 571 957 l 571 957 m 156 569 l 79 492 l 53 518 l 53 881 l 79 906 l 156 828 l 156 569 l 156 569 m 506 479 l 454 426 l 168 426 l 117 479 l 168 531 l 454 531 l 506 479 l 506 479 m 571 78 l 544 51 l 467 129 l 467 388 l 544 465 l 571 440 l 571 78 l 571 78 m 518 26 l 493 0 l 53 0 l 156 103 l 183 104 l 440 104 l 518 26 l 518 26 z "},"t":{"ha":604,"x_min":25,"x_max":581,"o":"m 354 26 l 328 0 l 250 78 l 250 388 l 328 465 l 354 440 l 354 26 l 354 26 m 354 518 l 328 492 l 250 569 l 250 821 l 354 821 l 354 518 l 354 518 m 554 957 l 581 932 l 503 854 l 103 854 l 25 932 l 50 957 l 554 957 l 554 957 z "},"u":{"ha":621,"x_min":50,"x_max":568,"o":"m 542 0 l 76 0 l 179 103 l 439 103 l 542 0 l 542 0 m 568 440 l 568 26 l 464 129 l 464 388 l 542 465 l 568 440 l 568 440 m 568 518 l 542 492 l 464 569 l 464 854 l 568 957 l 568 518 l 568 518 m 154 569 l 76 492 l 50 518 l 50 957 l 154 854 l 154 569 l 154 569 m 154 388 l 154 129 l 50 26 l 50 440 l 76 465 l 154 388 l 154 388 z "},"v":{"ha":610,"x_min":50,"x_max":567,"o":"m 549 471 l 561 436 q 458 219 508 328 q 357 0 407 110 l 325 0 l 325 176 q 342 217 325 181 q 379 297 358 253 q 419 381 400 342 q 444 433 439 421 l 549 471 m 567 518 l 542 492 l 464 569 l 464 854 l 567 958 l 567 518 m 153 569 l 75 492 l 50 518 l 50 958 l 153 854 l 153 569 m 292 176 l 292 0 l 260 0 l 57 436 l 69 471 l 172 433 q 197 381 178 421 q 238 297 217 342 q 275 217 258 253 q 292 176 292 181 z "},"w":{"ha":692,"x_min":49,"x_max":644,"o":"m 644 518 l 618 492 l 540 569 l 540 854 l 644 958 l 644 518 l 644 518 m 644 440 l 644 26 l 540 131 l 540 389 l 618 467 l 644 440 l 644 440 m 618 0 l 75 0 l 179 104 l 515 104 l 618 0 l 618 0 m 401 140 l 299 140 l 299 440 l 350 492 l 401 440 l 401 140 l 401 140 m 153 569 l 75 492 l 49 518 l 49 958 l 153 854 l 153 569 l 153 569 m 153 389 l 153 131 l 49 26 l 49 440 l 75 467 l 153 389 l 153 389 z "},"x":{"ha":578,"x_min":42,"x_max":542,"o":"m 363 463 l 542 33 l 528 0 l 444 0 q 429 35 440 8 q 403 97 418 61 q 371 173 388 133 q 340 246 354 213 q 317 301 326 279 q 308 324 308 322 l 308 463 l 363 463 m 275 463 l 275 324 q 266 301 275 322 q 243 246 257 279 q 213 173 229 213 q 181 97 196 133 q 154 35 165 61 q 139 0 143 8 l 56 0 l 42 33 l 221 463 l 275 463 m 275 633 l 275 496 l 221 496 l 42 924 l 56 957 l 139 957 q 153 922 142 949 q 181 860 165 896 q 213 784 196 824 q 243 711 229 744 q 266 656 257 678 q 275 633 275 633 m 528 957 l 542 924 l 363 496 l 308 496 l 308 633 q 317 656 308 633 q 340 711 326 678 q 371 784 354 744 q 403 860 388 824 q 430 922 418 896 q 444 957 442 949 l 528 957 z "},"y":{"ha":621,"x_min":51,"x_max":569,"o":"m 569 517 l 543 492 l 465 569 l 465 853 l 569 957 l 569 517 l 569 517 m 569 78 l 543 51 l 465 129 l 465 388 l 543 465 l 569 439 l 569 78 l 569 78 m 518 25 l 492 0 l 51 0 l 156 103 l 440 103 l 518 25 l 518 25 m 504 478 l 453 426 l 167 426 l 115 478 l 167 531 l 453 531 l 504 478 l 504 478 m 154 569 l 76 492 l 51 517 l 51 957 l 154 853 l 154 569 l 154 569 z "},"z":{"ha":586,"x_min":35,"x_max":546,"o":"m 468 103 l 546 25 l 519 0 l 76 0 l 35 42 l 63 103 l 468 103 m 290 463 l 314 406 l 192 138 l 78 138 l 214 436 l 258 463 l 290 463 m 503 819 q 477 759 494 800 q 441 674 460 718 q 404 594 422 631 q 376 544 386 557 q 365 536 375 543 q 344 521 356 529 q 322 505 332 513 q 307 494 311 497 l 264 494 l 253 521 l 389 819 l 503 819 m 546 914 l 518 854 l 113 854 l 35 932 l 61 957 l 503 957 l 546 914 z "},"$":{"ha":621,"x_min":53,"x_max":571,"o":"m 571 78 l 544 53 l 467 131 l 467 389 l 544 467 l 571 440 l 571 78 l 571 78 m 357 -33 l 357 -112 l 332 -139 l 254 -61 l 254 -33 l 357 -33 l 357 -33 m 519 26 l 493 0 l 53 0 l 156 104 l 442 104 l 519 26 l 519 26 m 454 531 l 507 479 l 454 428 l 169 428 l 117 479 l 169 531 l 454 531 l 454 531 m 357 138 l 254 138 l 254 394 l 357 394 l 357 138 l 357 138 m 357 1076 l 357 992 l 254 992 l 254 1024 l 332 1101 l 357 1076 l 357 1076 m 182 854 l 104 932 l 131 958 l 571 958 l 467 854 l 182 854 l 182 854 m 157 569 l 79 493 l 53 518 l 53 881 l 79 907 l 157 829 l 157 569 l 157 569 m 357 565 l 254 565 l 254 821 l 357 821 l 357 565 l 357 565 z "},"!":{"ha":213,"x_min":56,"x_max":158,"o":"m 158 518 l 133 493 l 56 569 l 56 881 l 133 958 l 158 932 l 158 518 l 158 518 m 158 0 l 56 0 l 56 103 l 158 103 l 158 0 l 158 0 m 158 168 l 133 142 l 56 219 l 56 389 l 133 467 l 158 440 l 158 168 l 158 168 z "},"?":{"ha":575,"x_min":33,"x_max":521,"o":"m 469 932 l 392 854 l 136 854 l 33 957 l 443 957 l 469 932 l 469 932 m 521 517 l 496 492 l 418 569 l 418 828 l 496 906 l 521 879 l 521 517 l 521 517 m 406 531 l 457 478 l 406 426 l 292 426 l 240 478 l 292 531 l 406 531 l 406 531 m 279 218 l 201 142 l 176 167 l 176 440 l 201 465 l 279 388 l 279 218 l 279 218 m 279 101 l 279 0 l 176 0 l 176 101 l 279 101 l 279 101 z "},"-":{"ha":371,"x_min":33,"x_max":342,"o":"m 290 522 l 342 471 l 290 419 l 85 419 l 33 471 l 85 522 l 290 522 l 290 522 z "},":":{"ha":222,"x_min":61,"x_max":164,"o":"m 164 258 l 61 258 l 61 361 l 164 361 l 164 258 l 164 258 m 164 653 l 61 653 l 61 756 l 164 756 l 164 653 l 164 653 z "},".":{"ha":219,"x_min":51,"x_max":154,"o":"m 154 101 l 154 0 l 51 0 l 51 101 l 154 101 l 154 101 z "},",":{"ha":219,"x_min":56,"x_max":160,"o":"m 160 -75 l 108 -128 l 56 -75 l 56 99 l 160 99 l 160 -75 l 160 -75 z "},"\"":{"ha":360,"x_min":44,"x_max":307,"o":"m 149 771 l 97 718 l 44 771 l 44 944 l 149 944 l 149 771 l 149 771 m 307 769 l 256 717 l 203 769 l 203 943 l 307 943 l 307 769 l 307 769 z "},";":{"ha":222,"x_min":60,"x_max":164,"o":"m 164 653 l 61 653 l 61 756 l 164 756 l 164 653 l 164 653 m 164 190 l 113 138 l 60 190 l 60 364 l 164 364 l 164 190 l 164 190 z "},"(":{"ha":208,"x_min":53,"x_max":365,"o":"m 365 1106 l 261 1003 l 182 1003 l 104 1081 l 131 1106 l 365 1106 l 365 1106 m 156 569 l 78 492 l 53 517 l 53 1028 l 78 1054 l 156 976 l 156 569 l 156 569 m 261 -47 l 365 -150 l 131 -150 l 104 -125 l 182 -47 l 261 -47 l 261 -47 m 156 -21 l 78 -99 l 53 -72 l 53 440 l 78 465 l 156 388 l 156 -21 l 156 -21 z "},")":{"ha":222,"x_min":-150,"x_max":163,"o":"m -150 -147 l -46 -44 l 33 -44 l 111 -122 l 85 -147 l -150 -147 l -150 -147 m 60 389 l 138 467 l 163 442 l 163 -69 l 138 -96 l 60 -18 l 60 389 l 60 389 m -46 1006 l -150 1108 l 85 1108 l 111 1083 l 33 1006 l -46 1006 l -46 1006 m 60 979 l 138 1057 l 163 1031 l 163 518 l 138 493 l 60 571 l 60 979 l 60 979 z "},"D":{"ha":621,"x_min":51,"x_max":569,"o":"m 156 129 l 51 26 l 51 440 l 78 465 l 156 388 l 156 129 l 156 129 m 517 26 l 492 0 l 78 0 l 181 103 l 440 103 l 517 26 l 517 26 m 569 78 l 543 51 l 465 129 l 465 388 l 543 465 l 569 440 l 569 78 l 569 78 m 569 518 l 543 492 l 465 569 l 465 828 l 543 906 l 569 879 l 569 518 l 569 518 m 517 932 l 440 854 l 181 854 l 78 957 l 492 957 l 517 932 l 517 932 m 156 569 l 78 492 l 51 518 l 51 932 l 156 828 l 156 569 l 156 569 z "},"B":{"ha":621,"x_min":53,"x_max":571,"o":"m 518 25 l 493 0 l 79 0 l 182 103 l 442 103 l 518 25 m 571 76 l 544 51 l 467 129 l 467 388 l 544 465 l 571 439 l 571 76 m 571 517 l 544 492 l 467 568 l 467 828 l 544 906 l 571 879 l 571 517 m 518 931 l 442 853 l 182 853 q 130 904 156 879 q 79 957 104 929 l 493 957 l 518 931 m 157 568 l 79 492 l 53 517 l 53 931 l 157 828 l 157 568 m 507 478 l 454 426 l 169 426 l 117 478 l 169 531 l 454 531 l 507 478 m 157 129 l 53 25 l 53 439 l 79 465 l 157 388 l 157 129 z "},"C":{"ha":563,"x_min":51,"x_max":543,"o":"m 543 957 l 439 854 l 181 854 l 103 932 l 129 957 l 543 957 l 543 957 m 154 569 l 76 492 l 51 517 l 51 879 l 76 906 l 154 828 l 154 569 l 154 569 m 439 103 l 543 0 l 129 0 l 103 25 l 181 103 l 439 103 l 439 103 m 154 129 l 76 51 l 51 78 l 51 440 l 76 465 l 154 388 l 154 129 l 154 129 z "},"A":{"ha":621,"x_min":51,"x_max":568,"o":"m 568 0 l 465 103 l 465 388 l 543 465 l 568 439 l 568 0 l 568 0 m 568 931 l 568 517 l 543 492 l 465 568 l 465 828 l 568 931 l 568 931 m 543 957 l 439 853 l 181 853 l 76 957 l 543 957 l 543 957 m 154 828 l 154 568 l 76 492 l 51 517 l 51 931 l 154 828 l 154 828 m 504 478 l 453 426 l 167 426 l 115 478 l 167 531 l 453 531 l 504 478 l 504 478 m 154 103 l 51 0 l 51 439 l 76 465 l 154 388 l 154 103 l 154 103 z "}}}
